<svg width="33" height="33" viewBox="0 0 33 33" fill="none" xmlns="http://www.w3.org/2000/svg">
<path opacity="0.4" d="M16.5074 0C7.39634 -3.60024e-06 0.00813085 7.38333 3.21725e-05 16.4964C-0.00522644 19.1537 0.634233 21.7726 1.86353 24.1282C1.98091 24.3484 2.08362 24.5685 2.20101 24.774C2.46422 25.2813 2.51694 25.8719 2.34774 26.4178C1.87697 27.6739 1.48493 28.9581 1.17389 30.263C1.17389 30.9088 1.36464 31.2904 2.05428 31.2904C3.30754 31.0091 4.5424 30.6513 5.75192 30.219C6.27744 30.0818 6.8332 30.1178 7.33662 30.3217C7.79149 30.5566 8.20234 30.8941 8.6572 31.0996H8.80394C13.9196 33.7929 20.0711 33.6132 25.0209 30.6258C29.9707 27.6385 32.9974 22.2788 33 16.4964C32.9919 7.38906 25.6126 0.00809185 16.5074 0Z" fill="black"/>
</svg>
